<svg width="200" height="280" viewBox="0 0 200 280" fill="none" xmlns="http://www.w3.org/2000/svg">
  <!-- Main Circle -->
  <circle cx="100" cy="100" r="95" stroke="#B8860B" stroke-width="4" fill="none"/>
  
  <!-- Top Diamond -->
  <polygon points="100,10 110,25 100,40 90,25" fill="#B8860B"/>
  
  <!-- Bottom Diamond -->
  <polygon points="100,160 110,175 100,190 90,175" fill="#B8860B"/>
  
  <!-- Left Diamond -->
  <polygon points="10,100 25,110 40,100 25,90" fill="#B8860B"/>
  
  <!-- Right Diamond -->
  <polygon points="160,100 175,110 190,100 175,90" fill="#B8860B"/>
  
  <!-- Central H Circle -->
  <circle cx="100" cy="65" r="25" fill="#B8860B"/>
  <text x="100" y="75" text-anchor="middle" fill="white" font-family="serif" font-size="28" font-weight="bold">H</text>
  
  <!-- Wing Lines -->
  <g stroke="#B8860B" stroke-width="2" fill="none">
    <!-- Left Wing -->
    <path d="M 30,100 Q 50,110 70,130"/>
    <path d="M 32,105 Q 52,115 72,135"/>
    <path d="M 34,110 Q 54,120 74,140"/>
    <path d="M 36,115 Q 56,125 76,145"/>
    <path d="M 38,120 Q 58,130 78,150"/>
    <path d="M 40,125 Q 60,135 80,155"/>
    <path d="M 42,130 Q 62,140 82,160"/>
    <path d="M 44,135 Q 64,145 84,165"/>
    <path d="M 46,140 Q 66,150 86,170"/>
    <path d="M 48,145 Q 68,155 88,175"/>
    
    <!-- Right Wing -->
    <path d="M 170,100 Q 150,110 130,130"/>
    <path d="M 168,105 Q 148,115 128,135"/>
    <path d="M 166,110 Q 146,120 126,140"/>
    <path d="M 164,115 Q 144,125 124,145"/>
    <path d="M 162,120 Q 142,130 122,150"/>
    <path d="M 160,125 Q 140,135 120,155"/>
    <path d="M 158,130 Q 138,140 118,160"/>
    <path d="M 156,135 Q 136,145 116,165"/>
    <path d="M 154,140 Q 134,150 114,170"/>
    <path d="M 152,145 Q 132,155 112,175"/>
  </g>
  
  <!-- HIJRAAH Text -->
  <text x="100" y="230" text-anchor="middle" fill="#B8860B" font-family="serif" font-size="36" font-weight="bold" letter-spacing="2px">HIJRAAH</text>
</svg>